<svg xmlns="http://www.w3.org/2000/svg" xmlns:xlink="http://www.w3.org/1999/xlink" width="34.486" height="26.436" viewBox="0 0 34.486 26.436">
  <defs>
    <clipPath id="clip-path">
      <rect id="Rectangle_15" data-name="Rectangle 15" width="34.486" height="26.436"/>
    </clipPath>
  </defs>
  <g id="Group_13" data-name="Group 13" transform="translate(0 0)">
    <g id="Group_12" data-name="Group 12" transform="translate(0 0)" clip-path="url(#clip-path)">
      <path id="Path_151" data-name="Path 151" d="M10.653,19.613l19.342-.1a.694.694,0,0,0,.666-.51l3.8-13.8a.695.695,0,0,0-.674-.879L7.294,4.454,6.3.524A.7.7,0,0,0,5.621,0L.692.024A.7.7,0,0,0,.7,1.415l4.386-.022L9.5,18.825,7.919,21.7a.7.7,0,0,0,.612,1.03l1.793-.009a2.525,2.525,0,0,0-.289,1.169,2.558,2.558,0,0,0,5.115-.025,2.528,2.528,0,0,0-.3-1.166l11.215-.056a2.525,2.525,0,0,0-.29,1.169,2.558,2.558,0,0,0,5.115-.026,2.525,2.525,0,0,0-.3-1.166l1.726-.008a.695.695,0,0,0-.007-1.39l-3.988.02-18.613.092Zm3.107,4.26a1.167,1.167,0,1,1-1.173-1.162h0a1.169,1.169,0,0,1,1.173,1.162M29.5,23.8a1.168,1.168,0,1,1-1.173-1.162h0A1.169,1.169,0,0,1,29.5,23.8m1.179-10.087-3.554.017-.016-3.333,4.49-.022Zm-4.6.023-5.65.028-.016-3.333,5.65-.028ZM20.436,14.8l5.65-.028.016,3.373-5.65.028ZM19.411,18.18l-5.65.028-.016-3.373,5.65-.028Zm1-8.8-.017-3.6,5.65-.028.018,3.6Zm-1.043.005-5.65.028-.017-3.6,5.65-.028Zm.005,1.042.016,3.333-5.65.028-.016-3.333ZM12.7,13.8l-3.032.015-.843-3.329,3.859-.019Zm.005,1.042.016,3.373-1.936.01-.853-3.369Zm16.76,3.29-2.315.012-.017-3.373,3.262-.016Zm2.423-8.8L27.1,9.35l-.017-3.6,5.793-.028ZM12.656,5.818l.018,3.6-4.117.02-.912-3.6Z" transform="translate(0 0)"/>
    </g>
  </g>
</svg>
